<svg width="120" height="37" viewBox="0 0 120 37" fill="none" xmlns="http://www.w3.org/2000/svg">
<path d="M27.9354 9.88054L30.6694 22.4535L21.3114 31.1438L9.21927 27.2612L6.48523 14.6882L15.8433 5.99789L27.9354 9.88054Z" fill="#363334"/>
<path d="M18.5773 6.7666L28.6467 12.6688V24.4731L18.5773 30.3752L8.50793 24.4731V12.6688L18.5773 6.7666Z" fill="#FF407D"/>
<rect x="14.4895" y="14.6626" width="8.17511" height="1.46114" rx="0.730569" fill="#1F1F23"/>
<rect x="14.4895" y="17.1172" width="8.17511" height="1.46114" rx="0.730569" fill="#1F1F23"/>
<ellipse cx="18.5768" cy="20.8818" rx="1.28992" ry="1.30958" fill="#1F1F23"/>
<path d="M48.1822 23.6188H54.8648V25.6671H45.3892V23.8257L52.0511 13.3363H45.3892V11.2881H54.8648V13.1294L48.1822 23.6188Z" fill="white"/>
<path d="M67.8911 19.6879C67.8911 20.1155 67.8635 20.5017 67.8083 20.8465H59.0982C59.1671 21.7568 59.5051 22.4878 60.1119 23.0395C60.7188 23.5913 61.4636 23.8671 62.3464 23.8671C63.6153 23.8671 64.5118 23.3361 65.036 22.274H67.5807C67.2359 23.3223 66.6084 24.1843 65.698 24.8602C64.8015 25.5223 63.6843 25.8533 62.3464 25.8533C61.2567 25.8533 60.2775 25.6119 59.4085 25.1292C58.5534 24.6326 57.8775 23.943 57.381 23.0602C56.8982 22.1637 56.6568 21.1292 56.6568 19.9569C56.6568 18.7845 56.8913 17.7569 57.3603 16.8742C57.843 15.9776 58.512 15.288 59.3671 14.8052C60.2361 14.3225 61.2292 14.0811 62.3464 14.0811C63.4222 14.0811 64.3808 14.3156 65.2222 14.7846C66.0635 15.2535 66.7187 15.9156 67.1876 16.7707C67.6566 17.6121 67.8911 18.5845 67.8911 19.6879ZM65.4291 18.9431C65.4153 18.0741 65.1049 17.3776 64.4981 16.8535C63.8912 16.3294 63.1395 16.0673 62.2429 16.0673C61.4292 16.0673 60.7326 16.3294 60.1533 16.8535C59.574 17.3638 59.2292 18.0603 59.1189 18.9431H65.4291Z" fill="white"/>
<path d="M75.9637 14.0811C76.8603 14.0811 77.6603 14.2673 78.3637 14.6397C79.0809 15.0121 79.6395 15.5639 80.0395 16.2949C80.4395 17.0259 80.6395 17.9086 80.6395 18.9431V25.6671H78.3016V19.2948C78.3016 18.2741 78.0465 17.4948 77.5361 16.9569C77.0258 16.4052 76.3293 16.1294 75.4465 16.1294C74.5638 16.1294 73.8603 16.4052 73.3362 16.9569C72.8259 17.4948 72.5707 18.2741 72.5707 19.2948V25.6671H70.2121V14.2673H72.5707V15.5707C72.9569 15.1018 73.4466 14.7363 74.0396 14.4742C74.6465 14.2122 75.2879 14.0811 75.9637 14.0811Z" fill="white"/>
<path d="M94.096 19.6879C94.096 20.1155 94.0685 20.5017 94.0133 20.8465H85.3031C85.3721 21.7568 85.71 22.4878 86.3169 23.0395C86.9238 23.5913 87.6686 23.8671 88.5513 23.8671C89.8203 23.8671 90.7168 23.3361 91.2409 22.274H93.7857C93.4409 23.3223 92.8133 24.1843 91.903 24.8602C91.0065 25.5223 89.8892 25.8533 88.5513 25.8533C87.4617 25.8533 86.4824 25.6119 85.6135 25.1292C84.7583 24.6326 84.0825 23.943 83.5859 23.0602C83.1032 22.1637 82.8618 21.1292 82.8618 19.9569C82.8618 18.7845 83.0963 17.7569 83.5652 16.8742C84.048 15.9776 84.7169 15.288 85.5721 14.8052C86.441 14.3225 87.4341 14.0811 88.5513 14.0811C89.6272 14.0811 90.5858 14.3156 91.4271 14.7846C92.2685 15.2535 92.9237 15.9156 93.3926 16.7707C93.8616 17.6121 94.096 18.5845 94.096 19.6879ZM91.634 18.9431C91.6202 18.0741 91.3099 17.3776 90.703 16.8535C90.0961 16.3294 89.3444 16.0673 88.4479 16.0673C87.6341 16.0673 86.9376 16.3294 86.3583 16.8535C85.779 17.3638 85.4342 18.0603 85.3238 18.9431H91.634Z" fill="white"/>
<path d="M95.6309 19.9569C95.6309 18.7845 95.8654 17.7569 96.3344 16.8742C96.8171 15.9776 97.4792 15.288 98.3205 14.8052C99.1619 14.3225 100.127 14.0811 101.217 14.0811C102.596 14.0811 103.734 14.4122 104.631 15.0742C105.541 15.7225 106.155 16.6535 106.472 17.8672H103.927C103.72 17.3017 103.389 16.8604 102.934 16.5431C102.479 16.2259 101.907 16.0673 101.217 16.0673C100.252 16.0673 99.4791 16.4121 98.8998 17.1017C98.3343 17.7776 98.0516 18.7293 98.0516 19.9569C98.0516 21.1844 98.3343 22.143 98.8998 22.8327C99.4791 23.5223 100.252 23.8671 101.217 23.8671C102.582 23.8671 103.486 23.2671 103.927 22.0672H106.472C106.141 23.2257 105.52 24.1499 104.61 24.8395C103.7 25.5154 102.569 25.8533 101.217 25.8533C100.127 25.8533 99.1619 25.6119 98.3205 25.1292C97.4792 24.6326 96.8171 23.943 96.3344 23.0602C95.8654 22.1637 95.6309 21.1292 95.6309 19.9569Z" fill="white"/>
<path d="M108.036 19.9155C108.036 18.7707 108.271 17.7569 108.74 16.8742C109.223 15.9914 109.871 15.3087 110.685 14.8259C111.512 14.3294 112.422 14.0811 113.416 14.0811C114.312 14.0811 115.091 14.2604 115.753 14.619C116.429 14.9639 116.967 15.3983 117.367 15.9225V14.2673H119.746V25.6671H117.367V23.9706C116.967 24.5085 116.422 24.9567 115.733 25.3154C115.043 25.674 114.257 25.8533 113.374 25.8533C112.395 25.8533 111.498 25.605 110.685 25.1085C109.871 24.5981 109.223 23.8947 108.74 22.9982C108.271 22.0878 108.036 21.0603 108.036 19.9155ZM117.367 19.9569C117.367 19.1707 117.202 18.4879 116.871 17.9086C116.553 17.3293 116.133 16.888 115.609 16.5845C115.084 16.2811 114.519 16.1294 113.912 16.1294C113.305 16.1294 112.74 16.2811 112.216 16.5845C111.691 16.8742 111.264 17.3086 110.933 17.8879C110.616 18.4534 110.457 19.1293 110.457 19.9155C110.457 20.7017 110.616 21.3913 110.933 21.9844C111.264 22.5775 111.691 23.0327 112.216 23.3499C112.753 23.6533 113.319 23.805 113.912 23.805C114.519 23.805 115.084 23.6533 115.609 23.3499C116.133 23.0464 116.553 22.6051 116.871 22.0258C117.202 21.4327 117.367 20.743 117.367 19.9569Z" fill="white"/>
</svg>
